<?xml version="1.0" standalone="no"?>
<!DOCTYPE svg PUBLIC "-//W3C//DTD SVG 20010904//EN"
 "http://www.w3.org/TR/2001/REC-SVG-20010904/DTD/svg10.dtd">
<svg version="1.0" xmlns="http://www.w3.org/2000/svg"
 width="700.000000pt" height="700.000000pt" viewBox="0 0 700.000000 700.000000"
 preserveAspectRatio="xMidYMid meet">
<metadata>
Created by potrace 1.11, written by Peter Selinger 2001-2013
</metadata>
<g transform="translate(0.000000,700.000000) scale(0.100000,-0.100000)"
fill="#000000" stroke="none">
<path d="M3682 5131 c-115 -46 -178 -141 -312 -466 -229 -555 -324 -647 -795
-776 -311 -84 -499 -183 -663 -350 -141 -142 -242 -311 -270 -449 -4 -19 -7
-69 -6 -111 0 -103 33 -169 128 -265 108 -107 221 -177 567 -346 118 -58 315
-161 439 -229 336 -186 431 -224 562 -228 55 -2 89 3 128 18 43 17 120 61 140
81 3 3 48 41 100 85 52 44 97 82 100 85 16 18 114 93 166 128 219 147 455 224
784 257 30 3 75 8 100 10 55 6 137 13 250 20 47 3 107 8 135 10 27 2 94 7 148
10 53 3 105 8 115 9 9 2 46 7 82 11 91 11 96 12 185 29 113 22 140 31 240 77
70 32 136 104 161 175 47 133 4 322 -126 563 -134 247 -371 532 -614 741 -27
23 -55 47 -62 53 -20 18 -31 26 -134 103 -125 94 -288 199 -485 314 -88 52
-232 136 -320 189 -344 203 -503 271 -631 270 -42 0 -86 -7 -112 -18z"/>
</g>
</svg>
